# xmcd CD database file
#
# Track frame offsets:
#	150
#	19145
#	31593
#	53932
#	70020
#	94004
#	108746
#	129232
#	149019
#	165917
#	180042
#	191524
#	222567
#
# Disc length: 3044 seconds
#
# Revision: 1
# Processed by: cddbd v1.4PL0 Copyright (c) Steve Scherf et al.
# Submitted via: CDex 1.50
#
DISCID=ab0be20d
DTITLE=Junior Wells - Big Blues Collection
DYEAR=2003
DGENRE=Blues
TTITLE0=It's My Life Baby
TTITLE1=It Hurts Me Too
TTITLE2=Vietcong Blues
TTITLE3=Shake it Baby
TTITLE4=Slow, Slow
TTITLE5=Country Girl
TTITLE6=You know that I know
TTITLE7=Early In The Morning
TTITLE8=All Night Long
TTITLE9=Checking On My Baby
TTITLE10=Shotgun Blues
TTITLE11=It's so Sad to Be Lonely
TTITLE12=Efes Adv.
EXTD=YEAR: 2003
EXTT0=
EXTT1=
EXTT2=
EXTT3=
EXTT4=
EXTT5=
EXTT6=
EXTT7=
EXTT8=
EXTT9=
EXTT10=
EXTT11=
EXTT12=
PLAYORDER=
